Coordinates
version=1
nRows=9
nColumns=36
inDegrees=yes

Units are S.I. units (second, meters, Newtons, ...)
If the header above contains a line with 'inDegrees', this indicates whether rotational values are in degrees (yes) or radians (no).

endheader
time	pelvis_tilt	pelvis_list	pelvis_rotation	pelvis_tx	pelvis_ty	pelvis_tz	hip_flexion_r	hip_adduction_r	hip_rotation_r	knee_angle_r	knee_angle_r_beta	ankle_angle_r	subtalar_angle_r	mtp_angle_r	hip_flexion_l	hip_adduction_l	hip_rotation_l	knee_angle_l	knee_angle_l_beta	ankle_angle_l	subtalar_angle_l	mtp_angle_l	lumbar_extension	lumbar_bending	lumbar_rotation	arm_flex_r	arm_add_r	arm_rot_r	elbow_flex_r	pro_sup_r	arm_flex_l	arm_add_l	arm_rot_l	elbow_flex_l	pro_sup_l
      1.60000000	      1.00518841	      0.91506913	     11.86467374	     -0.05167080	      1.00606156	      0.26897922	     -1.92838087	     -3.40046258	     -7.59099612	      7.02300142	      0.12257450	      9.64239326	     -3.97261122	     -7.49999975	     -3.08271594	     -1.37819011	    -18.58956965	      5.04527244	      0.08805662	      8.95950678	      4.63936054	     -7.49999975	     -8.71355953	     -1.41059042	     -5.55186499	     22.69087927	    -41.03513861	     73.52116578	     71.89455792	     94.32058068	    -16.70145133	    -46.89763434	     37.25557949	     88.63140962	     86.10966385
      1.61666670	      0.94647271	      0.91280763	     11.87357397	     -0.05106817	      1.00212245	      0.26867441	     -1.94229806	     -3.40519309	     -7.52321158	      7.01195733	      0.12238174	      9.51172551	     -4.06040015	     -7.49999977	     -3.08997153	     -1.34511114	    -18.58128032	      5.03326640	      0.08784707	      8.93594107	      4.59314984	     -7.49999977	     -8.56827613	     -1.41956519	     -5.48592331	     23.02833472	    -40.97380068	     74.32318428	     71.74137053	     93.13349735	    -16.40154735	    -46.96280452	     37.90732375	     88.54405261	     84.93982288
      1.63333330	      0.92702930	      0.88638204	     11.82517918	     -0.05177825	      1.00267122	      0.26919136	     -1.91014569	     -3.38905875	     -7.47421351	      7.10573171	      0.12401841	      9.44966771	     -4.23170980	     -7.49999977	     -3.07503182	     -1.34290859	    -18.53920207	      5.11569222	      0.08928567	      8.99449747	      4.37833001	     -7.49999977	     -8.59950202	     -1.43029519	     -5.30187366	     22.84334468	    -40.99618060	     74.06467948	     71.68466246	     92.15088429	    -16.37666701	    -46.97815769	     37.93064900	     88.53779396	     84.06167217
      1.65000000	      0.84593105	      0.85819733	     11.73212946	     -0.05113521	      0.99873810	      0.26894799	     -1.84575417	     -3.38377981	     -7.45524433	      7.14816228	      0.12475897	      9.42055302	     -4.26569881	     -7.49999980	     -3.03487017	     -1.33257594	    -18.62440251	      5.12965725	      0.08952941	      9.15999671	      4.53130878	     -7.49999980	     -8.50275348	     -1.39760337	     -5.66238203	     23.99069228	    -40.75826778	     75.61159907	     71.56729650	     94.30871735	    -17.14040155	    -46.88379266	     37.16747093	     88.56197744	     85.82729841
      1.66666670	      0.75877198	      0.86956529	     11.76531815	     -0.05136166	      0.99562520	      0.26902175	     -1.75018915	     -3.41326015	     -7.45177881	      7.21881532	      0.12599210	      9.47691557	     -4.31363941	     -7.49999981	     -2.98636219	     -1.27688293	    -18.56675916	      5.17663362	      0.09034930	      9.13742509	      4.27679548	     -7.49999981	     -8.53848655	     -1.49884781	     -5.50581557	     23.48486932	    -40.79668584	     75.11728518	     71.47047044	     90.90443981	    -16.98740664	    -46.92727726	     37.39547958	     88.61814348	     83.08023022
      1.68333330	      0.58584904	      0.87946190	     11.80636263	     -0.05064223	      0.99199695	      0.26862808	     -1.60746287	     -3.44242288	     -7.50431076	      7.13343056	      0.12450185	      9.57880213	     -4.20028644	     -7.49999983	     -2.83577096	     -1.24163211	    -18.69897262	      5.24321019	      0.09151128	      9.17757436	      4.33457857	     -7.49999983	     -8.36825327	     -1.53547061	     -5.81825160	     24.61901365	    -40.67066075	     77.14879515	     71.52473965	     91.52821997	    -17.29442687	    -47.14227754	     37.48723100	     88.71840163	     84.08396067
      1.70000000	      0.49382703	      0.89226987	     11.78652435	     -0.05097232	      0.99237858	      0.26899640	     -1.47003783	     -3.45155388	     -7.38335638	      7.12090583	      0.12428325	      9.74388191	     -4.19584191	     -7.49999984	     -2.69686789	     -1.23549671	    -18.78743098	      5.47525651	      0.09556125	      9.31341391	      4.16568093	     -7.49999984	     -8.52327287	     -1.64324003	     -5.74780493	     24.44011349	    -40.81155864	     76.93683784	     71.77744866	     91.00549526	    -17.51811877	    -47.24342251	     37.19123751	     88.99933591	     83.63817930
      1.71666670	      0.34585388	      0.88558584	     11.83324630	     -0.05027266	      0.99215041	      0.26870549	     -1.36963260	     -3.47149300	     -7.34399880	      7.02399064	      0.12259176	      9.79149457	     -4.17632383	     -7.49999984	     -2.54857632	     -1.23980854	    -18.82216958	      5.59719962	      0.09768956	      9.25699333	      3.83560299	     -7.49999984	     -8.66439764	     -1.72290592	     -5.70190039	     24.31924187	    -40.82160144	     76.74006314	     71.93503635	     89.65719765	    -17.65227692	    -47.42568302	     37.10395118	     89.19118643	     82.56428848
      1.73333330	      0.07103807	      0.86261954	     11.91741715	     -0.05026633	      0.98635266	      0.26896039	     -0.95589032	     -3.51691222	     -7.36412164	      7.13913155	      0.12460135	     10.01549049	     -4.03935712	     -7.49999985	     -2.13464404	     -1.25703681	    -18.85399369	      5.94403890	      0.10374305	      9.32890393	      3.61752164	     -7.49999985	     -8.90043053	     -1.85112353	     -6.93443779	     26.23231183	    -40.23797550	     79.11590821	     71.96306145	     92.11969785	    -20.61380454	    -46.89582606	     33.47526815	     89.80577338	     85.72398293
